<svg width="272" height="40" viewBox="0 0 272 40" fill="none" xmlns="http://www.w3.org/2000/svg">
<path d="M164.597 11.2982V28.7019H160.475V11.2982H164.597Z" fill="#000453"></path>
<path d="M63.6104 24.5794H79.8691V28.7015H59.4883V11.7562H63.6104V24.5794Z" fill="#000453"></path>
<path d="M208.335 23.3205C208.335 22.6249 207.771 22.061 207.076 22.061H195.397C192.425 22.061 190.016 19.6517 190.016 16.6796C190.016 13.7075 192.425 11.2982 195.397 11.2982H211.999V15.4201H195.397C194.701 15.4201 194.137 15.984 194.137 16.6796C194.137 17.3752 194.701 17.9391 195.397 17.9391H207.076C210.048 17.9391 212.457 20.3484 212.457 23.3205C212.457 26.2925 210.048 28.7019 207.076 28.7019H190.474V24.5799H207.076C207.771 24.5799 208.335 24.0161 208.335 23.3205Z" fill="#000453"></path>
<path fill-rule="evenodd" clip-rule="evenodd" d="M182.574 11.2982C186.179 11.2982 189.101 14.2202 189.101 17.8246C189.101 21.429 186.179 24.3509 182.574 24.3509H170.094V28.7019H165.972V11.2982H182.574ZM170.094 20.229H182.574C183.902 20.229 184.979 19.1525 184.979 17.8246C184.979 16.4966 183.902 15.4201 182.574 15.4201H170.094V20.229Z" fill="#000453"></path>
<path d="M101.623 20C101.623 17.4706 99.5729 15.4201 97.0435 15.4201H88.1127C85.5833 15.4201 83.5328 17.4706 83.5328 20C83.5328 22.5294 85.5833 24.5799 88.1127 24.5799H97.0435C99.5729 24.5799 101.623 22.5295 101.623 20ZM105.745 20C105.745 24.8059 101.849 28.7019 97.0435 28.7019H88.1127C83.3068 28.7019 79.4109 24.8059 79.4109 20C79.4109 15.1942 83.3068 11.2982 88.1127 11.2982H97.0435C101.849 11.2982 105.745 15.1942 105.745 20Z" fill="#000453"></path>
<path d="M155.209 20C155.209 17.4706 153.159 15.4201 150.63 15.4201H141.699C139.169 15.4201 137.119 17.4706 137.119 20C137.119 22.5294 139.169 24.5799 141.699 24.5799H150.63C153.159 24.5799 155.209 22.5295 155.209 20ZM159.331 20C159.331 24.8059 155.435 28.7019 150.63 28.7019H141.699C136.893 28.7019 132.997 24.8059 132.997 20C132.997 15.1942 136.893 11.2982 141.699 11.2982H150.63C155.435 11.2982 159.331 15.1942 159.331 20Z" fill="#000453"></path>
<path d="M213.372 21.374V11.2982H217.494V21.374C217.494 23.1446 218.929 24.5799 220.7 24.5799H232.378C234.149 24.5799 235.584 23.1446 235.584 21.374V11.2982H239.706V21.374C239.706 25.4211 236.426 28.7019 232.378 28.7019H220.7C216.653 28.7019 213.372 25.4211 213.372 21.374Z" fill="#000453"></path>
<path d="M106.432 20C106.432 15.1942 110.327 11.2982 115.133 11.2982H131.392V15.4201H115.133C112.604 15.4201 110.553 17.4706 110.553 20C110.553 22.5294 112.604 24.5799 115.133 24.5799H127.385C128.08 24.5799 128.644 24.0161 128.644 23.3205C128.644 22.6249 128.08 22.061 127.385 22.061H113.988V17.9391H127.385C130.357 17.9391 132.766 20.3484 132.766 23.3205C132.766 26.2925 130.357 28.7019 127.385 28.7019H115.133C110.327 28.7019 106.432 24.8059 106.432 20Z" fill="#000453"></path>
<path d="M262.737 11.2982C264.894 11.2982 266.803 12.6977 267.451 14.7555L271.848 28.7019H267.526L263.52 15.9946C263.412 15.6527 263.095 15.4201 262.737 15.4201C262.385 15.4202 262.075 15.6435 261.961 15.9709L261.941 16.0378L259.502 25.5556C259.028 27.407 257.359 28.7019 255.448 28.7019C253.505 28.7018 251.817 27.3639 251.374 25.4718L249.162 16.0335C249.078 15.6743 248.758 15.4202 248.389 15.4201C248.043 15.4202 247.737 15.6439 247.632 15.9734L243.575 28.7019H239.249L243.704 14.722C244.354 12.6828 246.249 11.2982 248.389 11.2982C250.672 11.2982 252.655 12.8702 253.176 15.0932L255.387 24.5314C255.394 24.5598 255.419 24.5799 255.448 24.5799C255.477 24.5799 255.502 24.5605 255.509 24.5328L257.948 15.0149L257.975 14.9127C258.57 12.7804 260.514 11.2982 262.737 11.2982Z" fill="#000453"></path>
<path d="M24.9727 0L29.687 3.92858L25.6129 7.32367C25.2421 7.63271 24.7034 7.63271 24.3325 7.32367L20.2585 3.92858L24.9727 0Z" fill="#00067F"></path>
<path fill-rule="evenodd" clip-rule="evenodd" d="M24.3325 11.3545C24.7034 11.6635 25.2421 11.6635 25.6129 11.3545L32.1054 5.94397L35.8399 9.05606L27.5335 15.9782C26.0501 17.2143 23.8954 17.2143 22.412 15.9782L14.1055 9.05606L17.84 5.94397L24.3325 11.3545Z" fill="#00067F"></path>
<path d="M24.9727 40L20.2585 36.0714L24.3325 32.6763C24.7034 32.3673 25.2421 32.3673 25.6129 32.6763L29.687 36.0714L24.9727 40Z" fill="#00067F"></path>
<path fill-rule="evenodd" clip-rule="evenodd" d="M25.6129 28.6455C25.2421 28.3365 24.7034 28.3365 24.3325 28.6455L17.84 34.056L14.1055 30.9439L22.412 24.0218C23.8954 22.7857 26.0501 22.7857 27.5335 24.0218L35.8399 30.9439L32.1054 34.056L25.6129 28.6455Z" fill="#00067F"></path>
<path d="M48.9727 20L44.2584 16.0714L40.466 19.2318C39.9862 19.6316 39.9862 20.3684 40.466 20.7682L44.2584 23.9286L48.9727 20Z" fill="#00067F"></path>
<path fill-rule="evenodd" clip-rule="evenodd" d="M35.6291 20.7682C35.1493 20.3684 35.1493 19.6316 35.6291 19.2318L41.8399 14.056L38.1054 10.9439L30.9257 16.9271C29.0067 18.5263 29.0067 21.4737 30.9257 23.0729L38.1054 29.0561L41.8399 25.944L35.6291 20.7682Z" fill="#00067F"></path>
<path d="M0.972656 20.0001L5.68692 23.9287L9.47933 20.7683C9.95909 20.3685 9.95909 19.6317 9.47933 19.2319L5.68692 16.0715L0.972656 20.0001Z" fill="#00067F"></path>
<path fill-rule="evenodd" clip-rule="evenodd" d="M14.3162 19.2319C14.796 19.6317 14.796 20.3685 14.3163 20.7683L8.10538 25.9441L11.8399 29.0562L19.0196 23.073C20.9386 21.4738 20.9386 18.5264 19.0196 16.9272L11.8399 10.944L8.10538 14.0561L14.3162 19.2319Z" fill="#00067F"></path>
</svg>